<svg width="32" height="32" viewBox="0 0 32 32" fill="none" 
  xmlns="http://www.w3.org/2000/svg">
  <rect width="32" height="32" rx="4.8" fill="#ECF2FE"/>
  <path fill-rule="evenodd" clip-rule="evenodd" d="M6 7.68192C6 7.22252 6.3731 6.8501 6.83333 6.8501H25.1667C25.6269 6.8501 26 7.22252 26 7.68192V10.3853C26 10.8447 25.6269 11.2171 25.1667 11.2171H6.83333C6.3731 11.2171 6 10.8447 6 10.3853L6 7.68192ZM6 13.5046C6 13.0452 6.3731 12.6728 6.83333 12.6728H11C11.4602 12.6728 11.8333 13.0452 11.8333 13.5046V24.3183C11.8333 24.7777 11.4602 25.1501 11 25.1501H6.83333C6.3731 25.1501 6 24.7777 6 24.3183V13.5046ZM14.3333 12.6728C13.8731 12.6728 13.5 13.0452 13.5 13.5046V24.3183C13.5 24.7777 13.8731 25.1501 14.3333 25.1501H25.1667C25.6269 25.1501 26 24.7777 26 24.3183V13.5046C26 13.0452 25.6269 12.6728 25.1667 12.6728H14.3333Z" fill="url(#paint0_linear)"/>
  <rect opacity="0.94" x="15.2002" y="15.2002" width="9" height="1.2" rx="0.6" fill="white"/>
  <rect opacity="0.94" x="15.2002" y="17.6001" width="9" height="1.2" rx="0.6" fill="white"/>
  <rect opacity="0.94" x="15.2002" y="20" width="9" height="1.2" rx="0.6" fill="white"/>
  <rect opacity="0.94" x="8" y="15" width="1" height="1" rx="0.5" fill="white"/>
  <rect opacity="0.94" x="8" y="17" width="1" height="1" rx="0.5" fill="white"/>
  <rect opacity="0.94" x="8" y="19" width="1" height="1" rx="0.5" fill="white"/>
  <rect opacity="0.94" x="8" y="21" width="1" height="1" rx="0.5" fill="white"/>
  <path fill-rule="evenodd" clip-rule="evenodd" d="M6 7.68192C6 7.22252 6.3731 6.8501 6.83333 6.8501H25.1667C25.6269 6.8501 26 7.22252 26 7.68192V10.3853C26 10.8447 25.6269 11.2171 25.1667 11.2171H6.83333C6.3731 11.2171 6 10.8447 6 10.3853L6 7.68192Z" fill="url(#paint1_linear)"/>
  <defs>
    <linearGradient id="paint0_linear" x1="26.75" y1="10.2501" x2="4.5288" y2="27.0382" gradientUnits="userSpaceOnUse">
      <stop stop-color="#3C3F53"/>
      <stop offset="1" stop-color="#212131"/>
    </linearGradient>
    <linearGradient id="paint1_linear" x1="15.8252" y1="13.3243" x2="17.6752" y2="5.00003" gradientUnits="userSpaceOnUse">
      <stop stop-color="#23D8ED"/>
      <stop offset="1" stop-color="#4967FB"/>
    </linearGradient>
  </defs>
</svg>
